HIERARCHY
ROOT hip
{
  OFFSET 0 0 0
  CHANNELS 6 Xposition Yposition Zposition Zrotation Yrotation Xrotation
  JOINT abdomen
  {
    OFFSET 0 20.6881 -0.73152
    CHANNELS 3 Zrotation Xrotation Yrotation
    JOINT chest
    {
      OFFSET 0 11.7043 -0.48768
      CHANNELS 3 Zrotation Xrotation Yrotation
      JOINT neck
      {
        OFFSET 0 22.1894 -2.19456
        CHANNELS 3 Zrotation Xrotation Yrotation
        JOINT head
        {
          OFFSET -0.24384 7.07133 1.2192
          CHANNELS 3 Zrotation Xrotation Yrotation
          JOINT leftEye
          {
            OFFSET 4.14528 8.04674 8.04672
            CHANNELS 3 Zrotation Xrotation Yrotation
            End Site
            {
              OFFSET 1 0 0
            }
          }
          JOINT rightEye
          {
            OFFSET -3.6576 8.04674 8.04672
            CHANNELS 3 Zrotation Xrotation Yrotation
            End Site
            {
              OFFSET 1 0 0
            }
          }
        }
      }
      JOINT rCollar
      {
        OFFSET -2.68224 19.2634 -4.8768
        CHANNELS 3 Zrotation Xrotation Yrotation
        JOINT rShldr
        {
          OFFSET -8.77824 -1.95073 1.46304
          CHANNELS 3 Zrotation Xrotation Yrotation
          JOINT rForeArm
          {
            OFFSET -28.1742 -1.7115 0.48768
            CHANNELS 3 Zrotation Xrotation Yrotation
            JOINT rHand
            {
              OFFSET -22.5879 0.773209 7.07136
              CHANNELS 3 Zrotation Xrotation Yrotation
              JOINT rThumb1
              {
                OFFSET -1.2192 -0.487915 3.41376
                CHANNELS 3 Zrotation Xrotation Yrotation
                JOINT rThumb2
                {
                  OFFSET -3.37035 -0.52449 3.41376
                  CHANNELS 3 Zrotation Xrotation Yrotation
                  End Site
                  {
                    OFFSET -1.78271 -1.18214 1.43049
                  }
                }
              }
              JOINT rIndex1
              {
                OFFSET -7.75947 0.938293 5.60832
                CHANNELS 3 Zrotation Xrotation Yrotation
                JOINT rIndex2
                {
                  OFFSET -2.54057 -0.884171 1.56538
                  CHANNELS 3 Zrotation Xrotation Yrotation
                  End Site
                  {
                    OFFSET -1.62519 -0.234802 1.16502
                  }
                }
              }
              JOINT rMid1
              {
                OFFSET -8.24714 1.18213 3.41376
                CHANNELS 3 Zrotation Xrotation Yrotation
                JOINT rMid2
                {
                  OFFSET -3.10165 -0.590103 1.0647
                  CHANNELS 3 Zrotation Xrotation Yrotation
                  End Site
                  {
                    OFFSET -2.48547 -0.328903 0.83742
                  }
                }
              }
              JOINT rRing1
              {
                OFFSET -8.82822 0.546677 1.51678
                CHANNELS 3 Zrotation Xrotation Yrotation
                JOINT rRing2
                {
                  OFFSET -2.60934 -0.819778 -0.0198488
                  CHANNELS 3 Zrotation Xrotation Yrotation
                  End Site
                  {
                    OFFSET -2.33842 -0.294052 0.168128
                  }
                }
              }
              JOINT rPinky1
              {
                OFFSET -8.27202 -0.0477905 -0.4584
                CHANNELS 3 Zrotation Xrotation Yrotation
                JOINT rPinky2
                {
                  OFFSET -1.82734 -0.647385 -0.700984
                  CHANNELS 3 Zrotation Xrotation Yrotation
                  End Site
                  {
                    OFFSET -1.69225 -0.51767 -0.607171
                  }
                }
              }
            }
          }
        }
      }
      JOINT lCollar
      {
        OFFSET 2.68224 19.2634 -4.8768
        CHANNELS 3 Zrotation Xrotation Yrotation
        JOINT lShldr
        {
          OFFSET 8.77824 -1.95073 1.46304
          CHANNELS 3 Zrotation Xrotation Yrotation
          JOINT lForeArm
          {
            OFFSET 28.1742 -1.7115 0.48768
            CHANNELS 3 Zrotation Xrotation Yrotation
            JOINT lHand
            {
              OFFSET 22.5879 0.773209 7.07136
              CHANNELS 3 Zrotation Xrotation Yrotation
              JOINT lThumb1
              {
                OFFSET 1.2192 -0.487915 3.41376
                CHANNELS 3 Zrotation Xrotation Yrotation
                JOINT lThumb2
                {
                  OFFSET 3.37035 -0.52449 3.41376
                  CHANNELS 3 Zrotation Xrotation Yrotation
                  End Site
                  {
                    OFFSET 1.78271 -1.18214 1.43049
                  }
                }
              }
              JOINT lIndex1
              {
                OFFSET 7.75947 0.938293 5.60832
                CHANNELS 3 Zrotation Xrotation Yrotation
                JOINT lIndex2
                {
                  OFFSET 2.54057 -0.884171 1.56538
                  CHANNELS 3 Zrotation Xrotation Yrotation
                  End Site
                  {
                    OFFSET 1.62519 -0.234802 1.16502
                  }
                }
              }
              JOINT lMid1
              {
                OFFSET 8.24714 1.18213 3.41376
                CHANNELS 3 Zrotation Xrotation Yrotation
                JOINT lMid2
                {
                  OFFSET 3.10165 -0.590103 1.0647
                  CHANNELS 3 Zrotation Xrotation Yrotation
                  End Site
                  {
                    OFFSET 2.48547 -0.328903 0.83742
                  }
                }
              }
              JOINT lRing1
              {
                OFFSET 8.82822 0.546677 1.51678
                CHANNELS 3 Zrotation Xrotation Yrotation
                JOINT lRing2
                {
                  OFFSET 2.60934 -0.819778 -0.0198488
                  CHANNELS 3 Zrotation Xrotation Yrotation
                  End Site
                  {
                    OFFSET 2.33842 -0.294052 0.168128
                  }
                }
              }
              JOINT lPinky1
              {
                OFFSET 8.27202 -0.0477905 -0.4584
                CHANNELS 3 Zrotation Xrotation Yrotation
                JOINT lPinky2
                {
                  OFFSET 1.82734 -0.647385 -0.700984
                  CHANNELS 3 Zrotation Xrotation Yrotation
                  End Site
                  {
                    OFFSET 1.69225 -0.51767 -0.607171
                  }
                }
              }
            }
          }
        }
      }
    }
  }
  JOINT rButtock
  {
    OFFSET -8.77824 4.35084 1.2192
    CHANNELS 3 Zrotation Xrotation Yrotation
    JOINT rThigh
    {
      OFFSET 0 -1.70687 -2.19456
      CHANNELS 3 Zrotation Xrotation Yrotation
      JOINT rShin
      {
        OFFSET 0 -36.8199 0.73152
        CHANNELS 3 Zrotation Xrotation Yrotation
        JOINT rFoot
        {
          OFFSET 0.73152 -45.1104 -5.12064
          CHANNELS 3 Zrotation Xrotation Yrotation
          End Site
          {
            OFFSET -1.1221 -3.69964 12.103
          }
        }
      }
    }
  }
  JOINT lButtock
  {
    OFFSET 8.77824 4.35084 1.2192
    CHANNELS 3 Zrotation Xrotation Yrotation
    JOINT lThigh
    {
      OFFSET 0 -1.70687 -2.19456
      CHANNELS 3 Zrotation Xrotation Yrotation
      JOINT lShin
      {
        OFFSET 0 -36.8199 0.73152
        CHANNELS 3 Zrotation Xrotation Yrotation
        JOINT lFoot
        {
          OFFSET -0.73152 -45.1104 -5.12064
          CHANNELS 3 Zrotation Xrotation Yrotation
          End Site
          {
            OFFSET 1.1221 -3.69964 12.103
          }
        }
      }
    }
  }
}
MOTION
Frames:	6
Frame Time:	0.00833333
-3.85802 84.2564 30.987 0.0 0.0 0.0 -1.24153 -0.00398112 -0.0340793 -0.342498 -0.00249243 -0.0593279 -8.23283e-15 -1.59028e-15 1.98785e-16 -2.46276e-14 3.18055e-15 5.82377e-16 -0.0 0.0 0.0 -0.0 0.0 0.0 -4.07668e-15 -2.34892e-17 2.48481e-16 -8.39274e-14 -7.76503e-16 2.5842e-15 -1.48179e-12 4.22815e-13 5.725e-14 -1.69529e-11 -5.44372e-13 3.59403e-13 -3.99948e-11 -2.63274e-13 9.41444e-13 -6.90773e-11 -4.58e-13 1.62606e-12 -3.99887e-11 -2.61203e-13 9.25541e-13 7.73091 5.47488 0.417314 -3.99964e-11 -2.63588e-13 9.41444e-13 2.90554 0.965183 0.102902 -3.99928e-11 -2.62992e-13 9.41444e-13 10.2786 0.731801 0.0259123 -3.99975e-11 -2.60408e-13 9.47805e-13 2.22167 -0.733487 -0.20892 -4.07376e-15 -2.36833e-17 -4.96962e-17 -8.78735e-14 -7.70291e-16 7.95139e-16 -1.481e-12 -4.58596e-13 4.13472e-14 -1.69468e-11 3.51526e-13 3.97569e-13 -3.99769e-11 -2.30559e-13 9.47805e-13 -6.90383e-11 -4.0393e-13 1.64673e-12 -3.998e-11 -2.28205e-13 9.63708e-13 -7.73091 5.47488 -0.417314 -3.99762e-11 -2.30391e-13 9.47805e-13 -2.90554 0.965183 -0.102902 -3.99871e-11 -2.30193e-13 9.4701e-13 -10.2786 0.731801 -0.0259123 -3.99732e-11 -2.29e-13 9.35083e-13 -2.22167 -0.733487 0.20892 -2.03217e-16 0.0 -3.88251e-19 -0.453629 -1.92099 -0.00953065 -0.00915715 -2.07857 -0.0755658 -0.487676 3.99699 0.136686 2.03217e-16 0.0 3.88251e-19 -1.43707 -5.97118 0.129652 -0.00126566 5.258 -0.0454268 0.507602 0.710722 -0.0722481
-4.46408 84.4152 29.9684 -2.1118 -0.8756 3.1359 -1.02847 -1.11104 0.733191 -0.371364 -0.542654 0.140823 -0.414073 1.4562 -0.680331 0.920287 0.843515 -1.29282 -0.0 0.0 0.0 -0.0 0.0 0.0 -1.05093e-14 1.888e-14 -1.69281e-14 23.6657 5.89912 -5.26208 -7.1533 -4.17114 9.99676 0.014339 2.6567 0.371926 1.3944e-10 -2.39668e-10 -2.57959e-11 2.40933e-10 -4.1383e-10 -4.66421e-11 1.39444e-10 -2.39665e-10 -2.58082e-11 7.73091 5.47488 0.417314 1.39438e-10 -2.39668e-10 -2.57961e-11 2.90554 0.965183 0.102902 1.39441e-10 -2.39668e-10 -2.57956e-11 10.2786 0.731801 0.0259123 1.39435e-10 -2.39666e-10 -2.57894e-11 2.22167 -0.733487 -0.20892 -1.04779e-14 1.88798e-14 -1.71844e-14 -23.2059 8.33717 1.97939 5.34205 -2.70242 -8.02338 -0.00749024 1.91995 -0.269284 3.35985e-11 1.64177e-10 1.0461e-10 5.88582e-11 2.84211e-10 1.80645e-10 3.35947e-11 1.64179e-10 1.04627e-10 -7.73091 5.47488 -0.417314 3.35996e-11 1.64178e-10 1.0461e-10 -2.90554 0.965183 -0.102902 3.35918e-11 1.64178e-10 1.04609e-10 -10.2786 0.731801 -0.0259123 3.36027e-11 1.6418e-10 1.04598e-10 -2.22167 -0.733487 0.20892 -2.03217e-16 0.0 -3.88251e-19 -1.56394 0.601115 0.857175 -0.00631889 -3.59249 -0.0739257 -0.604044 -0.257094 -4.01526 2.03217e-16 0.0 3.88251e-19 0.597721 -3.51387 -2.01225 -0.007574 3.99863 -0.0320549 0.392011 -2.13102 4.56522
-4.35001 84.3729 30.3015 -2.1554 -1.2148 2.3967 -0.770952 -2.27976 1.54491 -0.39703 -1.114 0.352354 -0.81556 2.99404 -1.40098 1.93692 1.73305 -2.66017 -0.0 0.0 0.0 -0.0 0.0 0.0 -1.78026e-14 4.0045e-14 -3.63869e-14 49.8781 11.9703 -11.0095 -13.1531 -8.15646 20.729 -0.0081605 5.46453 0.767729 3.30181e-10 -4.90241e-10 -4.98864e-11 5.705e-10 -8.46479e-10 -9.04453e-11 3.30184e-10 -4.90238e-10 -4.9895e-11 7.73091 5.47488 0.417314 3.3018e-10 -4.90242e-10 -4.9887e-11 2.90554 0.965183 0.102902 3.30183e-10 -4.90243e-10 -4.9886e-11 10.2786 0.731801 0.0259123 3.30176e-10 -4.90241e-10 -4.98796e-11 2.22167 -0.733487 -0.20892 -1.77375e-14 4.00449e-14 -3.65981e-14 -48.3902 17.1165 4.215 10.1739 -5.38196 -16.5607 0.00425698 3.94933 -0.554943 1.20658e-10 3.57257e-10 2.17151e-10 2.1014e-10 6.18427e-10 3.74894e-10 1.20653e-10 3.5726e-10 2.17169e-10 -7.73091 5.47488 -0.417314 1.20659e-10 3.57259e-10 2.17151e-10 -2.90554 0.965183 -0.102902 1.20655e-10 3.5726e-10 2.17149e-10 -10.2786 0.731801 -0.0259123 1.20662e-10 3.57262e-10 2.1714e-10 -2.22167 -0.733487 0.20892 -2.03217e-16 0.0 -3.88251e-19 -2.82028 3.26598 1.77666 -0.00321165 -5.19291 -0.0721597 -1.39665 -4.70555 -8.43207 2.03217e-16 0.0 3.88251e-19 2.94895 -0.917763 -4.26932 -0.0136381 2.66726 -0.017974 0.769606 -5.07892 9.49958
-4.35062 84.3664 30.3125 -2.1533 -1.228 2.3777 -0.513292 -3.32282 2.27114 -0.41777 -1.62291 0.541323 -1.13824 4.36612 -2.04627 2.87506 2.52539 -3.8818 -0.0 0.0 0.0 -0.0 0.0 0.0 -2.33747e-14 5.66869e-14 -5.12814e-14 74.328 17.0877 -16.4477 -17.249 -10.9906 30.5278 -0.0613082 7.96876 1.12545 4.98308e-10 -7.18477e-10 -7.92705e-11 8.60955e-10 -1.24057e-09 -1.43178e-10 4.9831e-10 -7.18473e-10 -7.92757e-11 7.73091 5.47488 0.417314 4.98307e-10 -7.18478e-10 -7.92712e-11 2.90554 0.965183 0.102902 4.9831e-10 -7.18479e-10 -7.92698e-11 10.2786 0.731801 0.0259123 4.98301e-10 -7.18478e-10 -7.92637e-11 2.22167 -0.733487 -0.20892 -2.32861e-14 5.66869e-14 -5.14538e-14 -71.4923 24.8858 6.47923 13.8137 -7.4727 -24.2623 0.0319026 5.75934 -0.811496 1.80749e-10 4.92992e-10 3.11935e-10 3.14651e-10 8.53442e-10 5.38641e-10 1.80744e-10 4.92995e-10 3.11954e-10 -7.73091 5.47488 -0.417314 1.80751e-10 4.92995e-10 3.11935e-10 -2.90554 0.965183 -0.102902 1.8075e-10 4.92996e-10 3.11932e-10 -10.2786 0.731801 -0.0259123 1.80755e-10 4.92998e-10 3.11925e-10 -2.22167 -0.733487 0.20892 -2.03217e-16 0.0 -3.88251e-19 -4.0142 5.63973 2.60304 -0.000387744 -6.62031 -0.0707812 -2.68617 -8.5638 -12.4595 2.03217e-16 0.0 3.88251e-19 5.21705 1.38592 -6.28514 -0.0184296 1.47989 -0.00546093 1.5363 -7.60632 13.9559
-4.3474 84.3636 30.3195 -2.1367 -1.2288 2.377 -0.317958 -4.05392 2.78043 -0.434188 -1.97579 0.673696 -1.33726 5.32616 -2.49819 3.53656 3.07966 -4.73594 -0.0 0.0 0.0 -0.0 0.0 0.0 -2.46436e-14 6.20208e-14 -5.47652e-14 91.988 20.4018 -20.4796 -19.4953 -12.4015 37.4795 -0.117181 9.71528 1.37877 6.09897e-10 -8.9087e-10 -1.21888e-10 1.05363e-09 -1.53828e-09 -2.18236e-10 6.09899e-10 -8.90866e-10 -1.21892e-10 7.73091 5.47488 0.417314 6.09896e-10 -8.90872e-10 -1.21888e-10 2.90554 0.965183 0.102902 6.099e-10 -8.90873e-10 -1.21888e-10 10.2786 0.731801 0.0259123 6.09889e-10 -8.90872e-10 -1.21882e-10 2.22167 -0.733487 -0.20892 -2.45572e-14 6.20212e-14 -5.49143e-14 -88.0197 30.2483 8.30456 16.0089 -8.69558 -29.6915 0.0608502 7.02144 -0.991819 1.73423e-10 4.85365e-10 3.62326e-10 3.02239e-10 8.40455e-10 6.26133e-10 1.73417e-10 4.85367e-10 3.62345e-10 -7.73091 5.47488 -0.417314 1.73425e-10 4.85368e-10 3.62326e-10 -2.90554 0.965183 -0.102902 1.73424e-10 4.85368e-10 3.62322e-10 -10.2786 0.731801 -0.0259123 1.73428e-10 4.85371e-10 3.62316e-10 -2.22167 -0.733487 0.20892 -2.03217e-16 0.0 -3.88251e-19 -4.88956 7.29133 3.18287 0.00152932 -7.61516 -0.0702813 -3.91231 -11.1547 -15.3468 2.03217e-16 0.0 3.88251e-19 6.89016 2.97917 -7.69383 -0.0212803 0.652551 0.00321905 2.30653 -9.28478 17.1023
-4.34069 84.3594 30.3272 -2.1054 -1.2294 2.3742 -0.240665 -4.35236 2.98311 -0.448803 -2.10807 0.726571 -1.39202 5.71361 -2.67516 3.77174 3.30388 -5.07259 -0.0 0.0 0.0 -0.0 0.0 0.0 -1.98382e-14 4.56158e-14 -4.01984e-14 99.0411 21.6102 -22.1185 -20.259 -12.8032 40.2175 -0.143534 10.406 1.48001 6.47277e-10 -1.01657e-09 -1.93446e-10 1.11786e-09 -1.75547e-09 -3.42612e-10 6.47283e-10 -1.01657e-09 -1.93448e-10 7.73091 5.47488 0.417314 6.47279e-10 -1.01658e-09 -1.93444e-10 2.90554 0.965183 0.102902 6.47283e-10 -1.01658e-09 -1.93445e-10 10.2786 0.731801 0.0259123 6.47271e-10 -1.01658e-09 -1.93441e-10 2.22167 -0.733487 -0.20892 -1.97989e-14 4.56173e-14 -4.03424e-14 -94.5998 32.3353 9.10538 16.8036 -9.11691 -31.8428 0.0743949 7.51699 -1.06301 7.27219e-11 2.40635e-10 3.34163e-10 1.27736e-10 4.17144e-10 5.78525e-10 7.2717e-11 2.40635e-10 3.34181e-10 -7.73091 5.47488 -0.417314 7.2723e-11 2.40635e-10 3.34163e-10 -2.90554 0.965183 -0.102902 7.27211e-11 2.40636e-10 3.3416e-10 -10.2786 0.731801 -0.0259123 7.27273e-11 2.40639e-10 3.34155e-10 -2.22167 -0.733487 0.20892 -2.03217e-16 0.0 -3.88251e-19 -5.24841 7.93617 3.40609 0.00223951 -8.00443 -0.0711733 -4.46409 -12.1279 -16.5056 2.03217e-16 0.0 3.88251e-19 7.55595 3.5974 -8.23797 -0.0217943 0.328012 0.00656231 2.65718 -9.91828 18.335
